<svg width="110" height="40" viewBox="0 0 110 40" fill="none" xmlns="http://www.w3.org/2000/svg">
<g clip-path="url(#clip0_66_6473)">
<path d="M0 34.5237C0.156021 31.6417 0.345349 28.9482 0.430372 26.252C0.472445 24.9223 0.24192 23.5839 0.276104 22.2533C0.337461 19.8849 0.531172 17.5201 0.617947 15.1517C0.653885 14.1718 0.551332 13.1866 0.518024 12.2031C0.387422 8.33503 0.538184 4.47834 1.05971 0.642684C1.09127 0.408653 1.46554 0.0931056 1.72324 0.0457735C2.22373 -0.0462612 2.81451 -0.0550264 3.01611 0.594476C3.11603 0.917035 3.11778 1.27904 3.11516 1.62263C3.07746 6.67753 3.01173 11.7324 2.99595 16.7873C2.98894 19.0908 3.15109 21.3961 3.10113 23.6978C3.03627 26.6867 2.8075 29.6722 2.70319 32.6602C2.63833 34.515 2.69793 36.3741 2.65849 38.2305C2.63219 39.4428 2.10277 39.9459 1.12896 39.8258C0.703846 39.7732 0.454914 39.6032 0.405829 39.1412C0.348855 38.6013 0.190205 38.071 0.149885 37.5302C0.0701217 36.4687 0.042073 35.4029 0.000876521 34.5246L0 34.5237Z" fill="white"/>
<path d="M61.6465 31.5486C62.8947 29.8622 63.4276 28.1135 63.9605 26.3622C64.3059 25.228 64.6793 24.1026 65.0299 22.9701C65.2595 22.2277 65.8328 22.2391 66.4087 22.3688C66.9942 22.5003 67.3799 22.836 67.2773 23.5311C66.7926 26.8119 65.6969 29.8578 63.7861 32.5838C63.1129 33.5453 62.63 34.6962 61.203 35.2028C60.0758 33.1745 58.9214 31.0981 57.718 28.9339C57.4138 29.8613 57.1885 30.7685 56.8204 31.6135C56.3576 32.6741 55.8448 33.7268 55.226 34.7023C54.644 35.62 54.1006 35.6376 53.5343 34.7444C52.8918 33.732 52.3843 32.6276 51.8821 31.5346C51.4596 30.6151 51.0739 29.6702 50.7707 28.7052C50.3429 27.3439 49.9695 25.9617 49.6496 24.5715C49.5181 24 49.6829 23.4084 50.3026 23.1305C50.9188 22.8544 51.4877 23.0472 51.9303 23.5013C52.1109 23.6862 52.2318 24.0096 52.2371 24.2735C52.2941 26.8575 53.4896 29.1066 54.2382 31.4864C54.3022 31.4899 54.3653 31.4943 54.4293 31.4978C55.0551 29.4826 55.7186 27.4789 56.2866 25.448C56.4829 24.745 56.9072 24.5557 57.512 24.504C58.0966 24.454 58.3929 24.7845 58.6295 25.2859C59.5963 27.336 60.5947 29.3722 61.6474 31.5486H61.6465Z" fill="white"/>
<path d="M12.1564 26.2702C12.0188 27.7769 11.9303 29.2118 11.7445 30.6335C11.6104 31.6573 11.386 32.6732 11.1265 33.6742C10.9477 34.3649 10.328 34.7085 9.71095 34.5884C9.1377 34.4771 8.8169 33.9722 8.90718 33.2C9.29109 29.9078 9.69955 26.6182 10.087 23.326C10.1667 22.651 10.6103 22.3811 11.1747 22.1576C11.748 21.9305 12.0793 22.2321 12.3712 22.6204C14.1277 24.9563 15.8738 27.3001 17.6224 29.6413C17.7469 29.8087 17.8635 29.9814 18.1475 30.1085C18.0817 29.0137 18.0353 27.9172 17.945 26.8242C17.831 25.4445 17.6759 24.0684 17.5514 22.6905C17.4927 22.0366 18.0309 21.3477 18.6173 21.2881C19.3334 21.2144 19.8681 21.686 19.9496 22.4591C20.3291 26.0335 20.6184 29.6115 20.3729 33.2105C20.351 33.5295 20.3607 33.8907 20.2125 34.151C19.9969 34.5288 19.7024 35.031 19.35 35.1213C18.8057 35.2615 18.3149 34.9644 17.9406 34.4113C16.1244 31.7292 14.2548 29.083 12.4019 26.4253C12.3773 26.3894 12.323 26.3745 12.1573 26.272L12.1564 26.2702Z" fill="white"/>
<path d="M91.8227 29.7614C92.8097 31.3558 93.7651 32.9142 94.7363 34.4631C95.0492 34.9627 94.9808 35.3939 94.5952 35.8076C94.0614 36.38 93.5241 36.3765 93.0674 35.7296C91.9551 34.1545 90.8647 32.5619 89.7769 30.9692C89.3369 30.325 88.9723 30.2093 87.7802 30.6388C87.5523 30.7212 87.3954 31.2497 87.3656 31.5872C87.235 33.0659 87.1482 34.549 87.0781 36.032C87.0501 36.6289 86.8257 36.9594 86.1981 36.9804C85.5372 37.0023 85.0051 36.834 84.8526 36.1083C84.7974 35.8462 84.8044 35.5648 84.8211 35.294C85.0385 31.9106 85.2663 28.529 85.4811 25.1456C85.5276 24.4076 85.5004 23.6643 85.5591 22.928C85.6257 22.0962 85.993 21.7439 86.8003 21.7807C88.0809 21.8385 89.4062 21.7737 90.6298 22.0857C93.2462 22.7527 94.5654 24.6714 94.1297 27.1941C94.0482 27.6639 93.6994 28.1363 93.3593 28.5001C92.9245 28.9646 92.3732 29.3196 91.8218 29.7614H91.8227ZM87.9634 24.3375C87.8477 25.6058 87.7303 26.8908 87.6075 28.2336C88.9285 28.2538 90.0241 27.9119 91.0418 27.3413C91.9516 26.8312 92.0585 25.9003 91.3512 25.1106C90.4703 24.1271 89.2931 23.851 87.9634 24.3384V24.3375Z" fill="white"/>
<path d="M58.8864 11.6665H52.7121C52.7682 12.8603 52.8138 14.1085 52.8918 15.3549C52.9444 16.1946 53.0426 17.0317 53.1189 17.8696C53.1609 18.3315 53.0514 18.7181 52.557 18.8706C52.0232 19.0354 51.499 19.0266 51.1607 18.5139C50.9617 18.2123 50.7891 17.8512 50.7426 17.498C50.3788 14.7676 50.2342 12.0346 50.6637 9.29023C50.9153 7.68094 51.0643 6.05499 51.3141 4.4457C51.45 3.57181 51.776 3.34304 52.472 3.43858C53.1583 3.53237 53.4554 3.87596 53.4081 4.69376C53.331 6.02782 53.2223 7.36189 53.0698 8.68894C53.0137 9.17891 53.125 9.39629 53.6185 9.39804C55.1024 9.40506 56.5855 9.40769 58.0694 9.4296C58.6225 9.43749 58.8232 9.19469 58.7636 8.65563C58.6541 7.67217 58.5638 6.68696 58.4744 5.70176C58.3964 4.84364 58.6462 4.47988 59.3746 4.36068C60.1135 4.24059 60.5588 4.48076 60.6885 5.30995C60.9173 6.77286 61.075 8.25068 61.175 9.72762C61.3266 11.975 61.402 14.2286 61.5124 16.4786C61.5527 17.292 61.2863 17.7004 60.6473 17.7811C59.8049 17.888 59.3588 17.5935 59.2694 16.7459C59.1274 15.3952 59.0503 14.0375 58.9477 12.6824C58.924 12.3651 58.9091 12.046 58.8864 11.6647V11.6665Z" fill="white"/>
<path d="M103.149 27.8129C104.193 28.6648 105.132 29.3257 105.942 30.1181C106.945 31.0998 107.888 32.1534 108.767 33.2482C109.287 33.8959 109.151 34.4166 108.573 34.8627C107.972 35.3273 107.56 35.2922 106.972 34.6708C106.291 33.9511 105.687 33.1526 104.958 32.4873C103.865 31.489 102.712 30.5555 101.548 29.6404C101.078 29.2714 100.889 29.6045 100.875 30.0752C100.829 31.6538 100.786 33.2333 100.74 34.8119C100.71 35.8216 100.531 36.0802 99.7824 36.1985C98.7823 36.3572 98.2775 36.0346 98.2722 35.0126C98.2617 32.8844 98.3213 30.7536 98.4159 28.6271C98.4975 26.797 98.6666 24.9712 98.7999 23.1436C98.8218 22.8474 98.8393 22.5485 98.8928 22.2575C99.0374 21.4651 99.6545 21.0286 100.385 21.1829C101.112 21.3362 101.432 21.8893 101.332 22.6817C101.18 23.9045 101.072 25.1333 100.922 26.5849C101.294 26.3377 101.459 26.2185 101.634 26.1133C103.161 25.1982 104.674 24.2603 106.223 23.3847C106.898 23.0034 107.504 23.2357 107.851 23.8668C108.171 24.4479 108.046 24.9116 107.342 25.3551C106.78 25.7092 106.142 25.9441 105.567 26.2825C104.785 26.7426 104.03 27.251 103.147 27.8129H103.149Z" fill="white"/>
<path d="M81.12 29.402C81.3356 34.0993 76.0003 36.5351 72.4644 34.8224C70.529 33.8845 69.5193 32.1884 69.486 30.0436C69.4448 27.4316 70.2047 25.1123 72.3478 23.4083C75.0133 21.2889 78.7324 22.1111 80.2181 25.1614C80.8956 26.5515 81.1472 27.7357 81.1209 29.402H81.12ZM78.8568 29.1741C78.8709 27.8654 78.5238 26.7365 77.8418 25.7337C76.8873 24.3296 76.3649 24.2042 74.6154 24.8213C74.433 24.8853 74.27 25.0159 74.1114 25.1333C72.4109 26.3894 71.8903 28.188 71.9472 30.1681C71.9884 31.6126 72.9298 32.6767 74.135 32.9203C76.5963 33.4182 78.976 32.0193 78.8568 29.1741Z" fill="white"/>
<path d="M27.8513 34.0792C29.7665 34.0792 31.6397 34.1037 33.5119 34.0651C34.1255 34.0529 34.5182 34.2974 34.7688 34.7962C35.1598 35.5728 34.7487 36.3695 33.8082 36.444C32.5065 36.5466 31.1935 36.515 29.8857 36.5027C28.7489 36.4922 27.612 36.4414 26.4769 36.3844C25.88 36.3546 25.5399 36.0864 25.5487 35.4027C25.5715 33.4989 25.5373 31.5951 25.5382 29.6904C25.5382 28.38 25.5119 27.0661 25.5864 25.7592C25.6416 24.8012 25.845 23.8519 25.9756 22.8983C26.0536 22.3285 26.391 22.0121 26.9354 21.9201C28.7147 21.6185 30.4923 21.3056 32.2778 21.0488C32.9159 20.9568 33.4015 21.5239 33.469 22.2917C33.5347 23.0368 33.3226 23.3172 32.5355 23.4268C31.3828 23.5863 30.2276 23.7222 29.0723 23.8572C28.386 23.9378 28.0959 24.3033 28.102 24.9967C28.1073 25.6137 28.0196 26.2308 27.9811 26.8487C27.9548 27.2677 28.1257 27.3904 28.5657 27.3457C29.6228 27.2388 30.686 27.1766 31.7483 27.1476C32.3374 27.1319 32.7984 27.3703 32.9448 28.032C33.1262 28.856 32.9132 29.3161 32.0823 29.4231C30.9805 29.5642 29.8629 29.6124 28.7506 29.6405C27.8899 29.6624 27.8417 29.679 27.8496 30.5634C27.8601 31.6977 27.8522 32.8319 27.8522 34.0809L27.8513 34.0792Z" fill="white"/>
<path d="M25.8864 8.9493C27.3046 8.9493 28.5352 8.91774 29.7632 8.96069C30.5644 8.98874 30.9351 9.43489 30.9439 10.1948C30.95 10.7383 30.7248 11.1467 30.1699 11.2011C29.0655 11.3089 27.9558 11.4018 26.8479 11.4079C25.8907 11.4132 25.8005 11.4597 25.8206 12.4317C25.832 12.9752 25.7768 13.5204 25.7672 14.0647C25.7566 14.6072 25.7645 15.1507 25.7645 15.8151C26.897 15.8826 28.0198 15.9843 29.1444 16.0035C29.9096 16.0167 30.6757 15.9106 31.4417 15.8624C32.1754 15.816 32.732 16.277 32.8284 17.0036C32.9126 17.6409 32.5979 18.1379 31.8204 18.2176C30.6213 18.3403 29.4073 18.3465 28.1995 18.3412C27.0372 18.3368 25.8741 18.2781 24.7145 18.1992C23.6688 18.1282 23.5075 17.9801 23.4864 16.9484C23.4505 15.17 23.4505 13.3906 23.4759 11.6122C23.5013 9.83107 23.4549 8.03771 23.6591 6.27415C23.9808 3.49383 23.8888 3.89265 26.1046 3.40968C27.4036 3.12657 28.7386 2.98545 30.0647 2.8601C30.9377 2.77771 31.3611 3.25103 31.397 4.15473C31.4286 4.95236 31.1429 5.18201 30.191 5.27492C29.062 5.38536 27.9365 5.53963 26.8163 5.71669C26.5858 5.75262 26.2203 5.94546 26.1949 6.10849C26.0433 7.09019 25.9723 8.08417 25.8864 8.94842V8.9493Z" fill="white"/>
<path d="M39.8054 17.7724C37.6641 17.7803 35.5788 15.8572 35.2396 13.3635C34.9591 11.3045 35.4912 9.43139 36.3151 7.54512C36.9786 6.02611 38.1304 5.21971 39.4837 4.51236C40.8371 3.805 42.2597 3.64635 43.7401 3.9058C44.0486 3.96015 44.3642 4.08111 44.6298 4.24677C45.1066 4.54479 45.3029 5.06895 45.068 5.5335C44.8997 5.86658 44.4606 6.17862 44.0872 6.26452C43.6253 6.37058 43.1064 6.24086 42.6129 6.20054C40.8327 6.05591 39.233 7.00431 38.4862 8.62762C37.8473 10.0169 37.395 11.4193 37.6273 12.9962C37.8727 14.6669 38.9254 15.5092 40.6065 15.3435C42.0537 15.2015 43.1984 14.6677 43.954 13.3512C44.3642 12.6368 45.0531 12.5404 45.6685 12.962C46.2925 13.3889 46.4363 14.02 46.0033 14.708C44.6184 16.909 42.5454 17.7899 39.8054 17.7732V17.7724Z" fill="white"/>
<path d="M40.5215 25.5471C39.6081 25.6751 38.7728 25.7636 37.9489 25.9144C37.2266 26.0467 36.564 25.7136 36.4386 25.0852C36.2993 24.3857 36.7086 23.8011 37.4528 23.6635C40.3777 23.1244 43.2974 22.5722 46.303 22.9403C47.3224 23.0657 47.9281 23.9738 47.3434 24.8073C47.1436 25.0922 46.5353 25.1912 46.111 25.1991C45.1127 25.2175 44.1117 25.129 43.0055 25.079C43.1458 26.3079 43.3272 27.3273 43.364 28.3511C43.4376 30.4267 43.4359 32.5058 43.4543 34.584C43.4561 34.776 43.3912 34.9723 43.3377 35.1617C43.1677 35.7603 42.7776 36.0969 42.1439 36.061C41.5172 36.025 41.107 35.6639 41.0465 35.0486C40.9816 34.3886 41.0369 33.7172 41.0123 33.0519C40.9317 30.8536 40.8449 28.6553 40.7441 26.4578C40.7318 26.1966 40.6214 25.9398 40.5223 25.548L40.5215 25.5471Z" fill="white"/>
<path d="M15.6161 7.05598C15.7572 9.69781 15.9062 12.2388 16.0176 14.7808C16.0439 15.3707 15.972 15.9702 15.8905 16.5575C15.7678 17.4445 15.3102 17.8644 14.5424 17.8459C13.7281 17.8258 13.5554 17.2219 13.4388 16.5873C13.3994 16.3699 13.3959 16.1446 13.395 15.922C13.3827 13.7719 13.395 11.6209 13.3512 9.47167C13.338 8.8134 13.1715 8.15864 13.054 7.36363C12.117 7.48722 11.2423 7.57926 10.3763 7.72476C9.73115 7.83257 9.01328 7.4732 8.90547 6.92537C8.75997 6.18208 9.11759 5.60709 9.85737 5.47649C12.8279 4.9532 15.7844 4.29055 18.84 4.76387C19.677 4.8936 19.9575 5.12763 19.94 5.99714C19.9242 6.79828 19.6516 7.05335 18.7655 7.03056C17.9266 7.00952 17.0895 6.9394 16.2507 6.92187C16.0141 6.91661 15.7748 7.02004 15.6144 7.0551L15.6161 7.05598Z" fill="white"/>
</g>
<defs>
<clipPath id="clip0_66_6473">
<rect width="109.091" height="39.8414" fill="white"/>
</clipPath>
</defs>
</svg>
