<svg width="145" height="17" viewBox="0 0 145 17" fill="none" xmlns="http://www.w3.org/2000/svg">
<mask id="mask0_19620_4068" style="mask-type:alpha" maskUnits="userSpaceOnUse" x="0" y="0" width="145" height="17">
<rect x="0.529297" y="6.10352e-05" width="144.255" height="16.2075" fill="#C4C4C4"/>
</mask>
<g mask="url(#mask0_19620_4068)">
<path d="M186.939 42.0382C186.939 47.6429 183.759 52.9969 177.975 57.8805C172.191 62.7637 163.816 67.1662 153.457 70.8655C132.74 78.2639 104.113 82.8419 72.4879 82.8419C40.8622 82.8419 12.2352 78.2639 -8.4815 70.8655C-18.8403 67.1662 -27.2157 62.7637 -32.9992 57.8805C-38.7833 52.9969 -41.9637 47.6429 -41.9637 42.0382C-41.9637 36.4335 -38.7833 31.0796 -32.9992 26.1959C-27.2157 21.3127 -18.8403 16.9103 -8.4815 13.2109C12.2352 5.81259 40.8622 1.23457 72.4879 1.23457C104.113 1.23457 132.74 5.81259 153.457 13.2109C163.816 16.9103 172.191 21.3127 177.975 26.1959C183.759 31.0796 186.939 36.4335 186.939 42.0382Z" fill="url(#paint0_linear_19620_4068)" fill-opacity="0.3" stroke="#61C3F2" stroke-width="0.215238"/>
</g>
<defs>
<linearGradient id="paint0_linear_19620_4068" x1="72.4879" y1="1.12695" x2="72.4879" y2="12.5828" gradientUnits="userSpaceOnUse">
<stop stop-color="#61C3F2" stop-opacity="0.26"/>
<stop offset="1" stop-color="#61C3F2" stop-opacity="0"/>
</linearGradient>
</defs>
</svg>
